# xmcd
#
# Track frame offsets: 
#        150
#        16198
#        29114
#        49488
#        68001
#        83960
#
# Disc length: 1403 seconds
#
# Revision: 0
# Processed by: cddbd v1.5.2PL0 Copyright (c) Steve Scherf et al.
# Submitted via: ExactAudioCopyFreeDBPlugin 1.0
#
DISCID=4c057906
DTITLE=Nitty Gritty Dirt Band - Under the Big Top vol. 1
DYEAR=2011
DGENRE=Country
TTITLE0=Tulsa Sounds Like Trouble to Me
TTITLE1=My Walkin' Shoes
TTITLE2=Mr. Bojangles
TTITLE3=Bless the Broken Road
TTITLE4=Fishin' In the Dark
TTITLE5=Bayou Jubilee
EXTD=
EXTT0=
EXTT1=
EXTT2=
EXTT3=
EXTT4=
EXTT5=
PLAYORDER=
